<svg width="151" height="39" viewBox="0 0 151 39" fill="none" xmlns="http://www.w3.org/2000/svg">
<g clip-path="url(#clip0_258_377)">
<path d="M22.4284 36.8441L22.5202 2.17427C22.5202 1.96451 22.4785 1.75683 22.3976 1.56327C22.3167 1.36971 22.1981 1.1941 22.0487 1.04664C21.8994 0.899169 21.7222 0.782767 21.5275 0.704176C21.3327 0.625584 21.1243 0.586365 20.9143 0.58879H14.6102C14.1916 0.58879 13.7901 0.754866 13.4942 1.05048C13.1982 1.3461 13.0319 1.74704 13.0319 2.16511V6.87573C13.0319 7.08585 12.9899 7.29387 12.9083 7.48755C12.8267 7.68122 12.7072 7.85665 12.5567 8.00351C12.4062 8.15038 12.2279 8.26571 12.0321 8.34274C11.8364 8.41977 11.6272 8.45693 11.4168 8.45204L1.9836 8.47037C1.77633 8.47037 1.57109 8.51115 1.3796 8.59036C1.18811 8.66958 1.01411 8.78569 0.867554 8.93206C0.720993 9.07844 0.604734 9.25221 0.525416 9.44346C0.446098 9.63471 0.405273 9.83968 0.405273 10.0467L0.405273 13.1993C0.405273 13.6174 0.571561 14.0183 0.867554 14.3139C1.16355 14.6096 1.565 14.7756 1.9836 14.7756H8.2969C8.7155 14.7756 9.11695 14.9417 9.41294 15.2373C9.70893 15.5329 9.87522 15.9339 9.87522 16.352V22.6572C9.87522 23.0753 9.70893 23.4762 9.41294 23.7718C9.11695 24.0675 8.7155 24.2335 8.2969 24.2335H1.9836C1.565 24.2335 1.16355 24.3996 0.867554 24.6952C0.571561 24.9908 0.405273 25.3918 0.405273 25.8099L0.405273 28.9991C0.405273 29.4172 0.571561 29.8182 0.867554 30.1138C1.16355 30.4094 1.565 30.5755 1.9836 30.5755H11.4168C11.8354 30.5755 12.2369 30.7415 12.5329 31.0372C12.8289 31.3328 12.9952 31.7337 12.9952 32.1518V36.8716C12.9952 37.2896 13.1615 37.6906 13.4574 37.9862C13.7534 38.2818 14.1549 38.4479 14.5735 38.4479H20.8501C21.06 38.4492 21.2681 38.4083 21.462 38.3279C21.6559 38.2474 21.8316 38.1288 21.9788 37.9793C22.126 37.8297 22.2416 37.6522 22.3188 37.4572C22.3961 37.2622 22.4333 37.0537 22.4284 36.8441Z" fill="#93D500"/>
<path d="M38.276 0.588772H31.9719C31.5533 0.588772 31.1518 0.754847 30.8558 1.05046C30.5598 1.34608 30.3936 1.74702 30.3936 2.16509V36.8349C30.3936 37.253 30.5598 37.6539 30.8558 37.9495C31.1518 38.2451 31.5533 38.4112 31.9719 38.4112H38.276C38.484 38.4124 38.6903 38.3725 38.8828 38.2939C39.0754 38.2152 39.2504 38.0993 39.398 37.9528C39.5455 37.8063 39.6626 37.6321 39.7425 37.4402C39.8224 37.2484 39.8635 37.0427 39.8635 36.8349V2.16509C39.8635 1.95731 39.8224 1.75158 39.7425 1.55973C39.6626 1.36789 39.5455 1.19371 39.398 1.04721C39.2504 0.900717 39.0754 0.784797 38.8828 0.706121C38.6903 0.627445 38.484 0.587564 38.276 0.588772Z" fill="#93D500"/>
<path d="M57.2158 2.16512V21.0809C57.2158 21.499 57.3821 21.8999 57.6781 22.1955C57.9741 22.4912 58.3755 22.6572 58.7941 22.6572H60.3724C60.791 22.6572 61.1925 22.8233 61.4885 23.1189C61.7845 23.4145 61.9508 23.8155 61.9508 24.2336V28.9992C61.9508 29.4172 61.7845 29.8182 61.4885 30.1138C61.1925 30.4094 60.791 30.5755 60.3724 30.5755H49.3609C49.1505 30.5804 48.9413 30.5432 48.7456 30.4662C48.5499 30.3892 48.3715 30.2738 48.221 30.127C48.0706 29.9801 47.951 29.8047 47.8694 29.611C47.7878 29.4173 47.7458 29.2093 47.7458 28.9992V2.16512C47.7458 1.74706 47.9121 1.34612 48.2081 1.0505C48.5041 0.754882 48.9056 0.588806 49.3242 0.588806H55.6375C56.0561 0.588806 56.4575 0.754882 56.7535 1.0505C57.0495 1.34612 57.2158 1.74706 57.2158 2.16512Z" fill="#93D500"/>
<path d="M71.4207 11.7147V2.25677H75.55V3.58565H73.3477V6.08759H75.0453V7.43479H73.3477V10.4041H75.5684V11.7147H71.4207Z" fill="#1C355E"/>
<path d="M146.171 11.7147V2.25677H150.3V3.58565H148.144V6.08759H149.841V7.43479H148.144V10.4041H150.364V11.7147H146.171Z" fill="#1C355E"/>
<path d="M79.5325 11.843C78.9498 11.8701 78.3713 11.7336 77.8624 11.4489C77.4573 11.1938 77.1552 10.8045 77.009 10.3491C76.8352 9.8168 76.7515 9.25929 76.7612 8.69949V5.29941C76.7488 4.73043 76.8325 4.16343 77.009 3.62228C77.1501 3.16425 77.4535 2.77327 77.8624 2.52253C78.3724 2.24148 78.9508 2.10818 79.5325 2.13761C80.0947 2.10076 80.6563 2.21801 81.1567 2.47671C81.5297 2.6751 81.8193 3.00015 81.9734 3.39317C82.1465 3.85278 82.2305 4.34106 82.2211 4.83202V5.62934H80.3859V4.71287C80.4007 4.51152 80.4007 4.30936 80.3859 4.10801C80.3791 3.93432 80.3108 3.76867 80.1932 3.64061C80.1233 3.56989 80.0383 3.51584 79.9445 3.48252C79.8508 3.44919 79.7507 3.43745 79.6518 3.44816C79.5502 3.4391 79.4478 3.45155 79.3513 3.48472C79.2549 3.51788 79.1665 3.571 79.092 3.64061C78.9668 3.7737 78.8893 3.94454 78.8718 4.12634C78.8519 4.34278 78.8519 4.56058 78.8718 4.77703V9.13939C78.8693 9.37578 78.8877 9.61192 78.9268 9.84507C78.9633 10.0185 79.0494 10.1777 79.1746 10.3033C79.3261 10.4125 79.5114 10.4644 79.6976 10.4499C79.7923 10.4609 79.8881 10.4509 79.9785 10.4208C80.0689 10.3908 80.1516 10.3413 80.2207 10.2758C80.2827 10.1081 80.2891 9.92501 80.239 9.75342C80.2579 9.53693 80.2579 9.31922 80.239 9.10273V8.18627H82.0743V8.96526C82.0839 9.46665 82.0062 9.96589 81.8449 10.4408C81.731 10.85 81.49 11.2126 81.1567 11.4764C80.6611 11.7501 80.0977 11.8773 79.5325 11.843Z" fill="#1C355E"/>
<path d="M86.3596 11.8429C85.785 11.8708 85.2138 11.7409 84.7079 11.4672C84.2913 11.2257 83.9681 10.8512 83.7903 10.4041C83.6111 9.86657 83.5242 9.30262 83.5333 8.73614V5.1711C83.5227 4.60751 83.6096 4.04633 83.7903 3.5123C83.9686 3.06781 84.2919 2.69646 84.7079 2.45837C85.2173 2.19576 85.7871 2.07245 86.3596 2.10095C86.9376 2.06848 87.513 2.19866 88.0206 2.4767C88.4461 2.69865 88.7733 3.07121 88.9382 3.52146C89.1345 4.04876 89.228 4.60871 89.2135 5.1711V8.73614C89.2261 9.30437 89.1327 9.86998 88.9382 10.4041C88.7711 10.8576 88.4451 11.2353 88.0206 11.4672C87.5114 11.7407 86.9372 11.8706 86.3596 11.8429ZM86.3596 10.4499C86.5574 10.466 86.754 10.4071 86.9102 10.285C87.0272 10.1596 87.1067 10.0041 87.1396 9.8359C87.1801 9.63057 87.2016 9.42196 87.2039 9.2127V4.74036C87.2026 4.53711 87.1811 4.33449 87.1396 4.13549C87.1108 3.96594 87.0308 3.80925 86.9102 3.68643C86.7553 3.56099 86.5586 3.49878 86.3596 3.5123C86.1664 3.49978 85.9758 3.56215 85.8274 3.68643C85.7069 3.80925 85.6268 3.96594 85.598 4.13549C85.5598 4.33482 85.5414 4.53742 85.543 4.74036V9.2127C85.5241 9.42 85.5241 9.62859 85.543 9.8359C85.57 10.006 85.6503 10.1632 85.7724 10.285C85.8536 10.3514 85.9477 10.4003 86.0487 10.4287C86.1498 10.4571 86.2557 10.4643 86.3596 10.4499Z" fill="#1C355E"/>
<path d="M93.2604 11.843C92.7548 11.8602 92.253 11.7499 91.8013 11.5222C91.4048 11.3232 91.083 11.0018 90.8837 10.6058C90.6647 10.0798 90.5494 9.51656 90.5442 8.94696L92.2051 8.66285C92.2117 8.9924 92.2486 9.32065 92.3152 9.64347C92.3674 9.86235 92.4748 10.0643 92.6272 10.23C92.77 10.3524 92.953 10.4177 93.1411 10.4133C93.237 10.4266 93.3347 10.4121 93.4225 10.3714C93.5104 10.3308 93.5847 10.2658 93.6366 10.1842C93.7371 10.022 93.7882 9.83413 93.7834 9.64347C93.7941 9.29066 93.6912 8.94374 93.4898 8.65369C93.2772 8.34892 93.0241 8.07451 92.7373 7.83804L91.7555 6.98572C91.4171 6.69659 91.1261 6.35646 90.8929 5.97762C90.6614 5.55724 90.5473 5.08244 90.5625 4.60292C90.5359 4.26571 90.5837 3.92676 90.7026 3.61003C90.8215 3.2933 91.0086 3.00653 91.2508 2.76999C91.7619 2.3375 92.4166 2.11189 93.086 2.13763C93.4901 2.12095 93.8925 2.19944 94.2606 2.36675C94.547 2.50924 94.7884 2.7281 94.958 2.99911C95.1327 3.2567 95.2543 3.54643 95.3159 3.85142C95.3817 4.15324 95.4247 4.4596 95.4443 4.76788L93.7926 5.00616C93.7926 4.72206 93.7926 4.46545 93.71 4.2455C93.6911 4.05757 93.6178 3.87923 93.499 3.73228C93.4398 3.66851 93.367 3.61891 93.2859 3.58717C93.2049 3.55544 93.1178 3.54238 93.031 3.54899C92.9315 3.54209 92.8319 3.56232 92.743 3.60751C92.6542 3.65271 92.5792 3.72118 92.5263 3.8056C92.417 3.96809 92.3594 4.15975 92.3611 4.35548C92.3477 4.64779 92.4281 4.93675 92.5905 5.18029C92.7756 5.42352 92.9847 5.64764 93.2145 5.84931L94.178 6.69246C94.6009 7.0429 94.9662 7.45726 95.2608 7.92052C95.5623 8.40664 95.7124 8.97122 95.6921 9.54266C95.6975 9.96235 95.5932 10.3762 95.3893 10.7432C95.1904 11.0993 94.8945 11.3917 94.5359 11.5864C94.1398 11.7798 93.7005 11.8682 93.2604 11.843Z" fill="#1C355E"/>
<path d="M97.0593 11.7147V2.25677H101.189V3.58565H98.9863V6.08759H100.684V7.43479H98.9863V10.4041H101.207V11.7147H97.0593Z" fill="#1C355E"/>
<path d="M102.538 11.7146V2.25675H105.015C105.568 2.24506 106.119 2.31927 106.649 2.4767C107.08 2.59678 107.454 2.86649 107.704 3.23736C107.973 3.69398 108.101 4.22029 108.071 4.74953C108.078 5.10053 108.044 5.45118 107.97 5.7943C107.909 6.07532 107.79 6.34061 107.621 6.57329C107.436 6.80699 107.192 6.9873 106.915 7.09567L108.227 11.678H106.254L105.162 7.38894H104.483V11.678L102.538 11.7146ZM104.465 6.28002H105.015C105.271 6.29327 105.527 6.24289 105.758 6.13339C105.935 6.0328 106.066 5.86895 106.126 5.67516C106.212 5.42807 106.253 5.16708 106.245 4.90533C106.27 4.55749 106.183 4.21079 105.997 3.91555C105.89 3.77979 105.748 3.67509 105.587 3.61226C105.426 3.54943 105.25 3.53074 105.079 3.55813H104.419L104.465 6.28002Z" fill="#1C355E"/>
<path d="M110.98 11.7147L109.145 2.25677H110.815L111.98 8.83698L113.026 2.3026H114.77L112.934 11.7605L110.98 11.7147Z" fill="#1C355E"/>
<path d="M116.118 11.7147V2.25677H118.036V11.7147H116.118Z" fill="#1C355E"/>
<path d="M122.45 11.843C121.868 11.8686 121.289 11.7322 120.78 11.4489C120.38 11.1883 120.08 10.8009 119.927 10.3491C119.753 9.81681 119.669 9.2593 119.679 8.69949V5.29941C119.666 4.73043 119.75 4.16343 119.927 3.62229C120.075 3.16803 120.377 2.7793 120.78 2.52253C121.292 2.28421 121.849 2.16071 122.413 2.16071C122.978 2.16071 123.535 2.28421 124.047 2.52253C124.416 2.72526 124.705 3.04888 124.864 3.43899C125.037 3.89861 125.121 4.38688 125.111 4.87784V5.67516H123.276V4.7587C123.286 4.55721 123.286 4.35533 123.276 4.15384C123.262 3.98003 123.191 3.81565 123.074 3.68644C123.006 3.61532 122.923 3.56091 122.831 3.52751C122.738 3.4941 122.64 3.48263 122.542 3.49398C122.439 3.48532 122.335 3.49794 122.237 3.53105C122.14 3.56416 122.05 3.61706 121.973 3.68644C121.853 3.82297 121.776 3.99204 121.753 4.17217C121.722 4.3877 121.707 4.60514 121.707 4.82285V9.1394C121.703 9.37625 121.724 9.61288 121.771 9.84507C121.805 10.0175 121.888 10.1766 122.01 10.3033C122.165 10.411 122.353 10.4627 122.542 10.4499C122.637 10.4609 122.732 10.4509 122.823 10.4209C122.913 10.3908 122.996 10.3413 123.065 10.2758C123.178 10.1371 123.249 9.96821 123.267 9.79008C123.281 9.57342 123.281 9.35606 123.267 9.1394V8.22293H125.102V9.00193C125.109 9.50385 125.028 10.0031 124.864 10.4774C124.714 10.8915 124.43 11.2433 124.056 11.4764C123.567 11.7486 123.009 11.8758 122.45 11.843Z" fill="#1C355E"/>
<path d="M126.68 11.7147V2.25677H128.598V11.7147H126.68Z" fill="#1C355E"/>
<path d="M133.04 11.843C132.465 11.8685 131.895 11.7387 131.388 11.4672C130.968 11.2297 130.644 10.854 130.47 10.4041C130.287 9.86764 130.2 9.30294 130.213 8.73616V5.17112C130.198 4.60724 130.285 4.04524 130.47 3.51232C130.644 3.0651 130.969 2.6924 131.388 2.45839C131.898 2.19783 132.467 2.07463 133.04 2.10097C133.618 2.06751 134.193 2.19776 134.701 2.47672C135.123 2.70277 135.449 3.07392 135.618 3.52149C135.795 4.05276 135.873 4.61187 135.848 5.17112V8.73616C135.859 9.30351 135.769 9.8683 135.582 10.4041C135.41 10.8552 135.085 11.2315 134.664 11.4672C134.166 11.7356 133.605 11.8654 133.04 11.843ZM133.04 10.4499C133.237 10.466 133.434 10.4071 133.59 10.285C133.711 10.1608 133.793 10.0051 133.829 9.83592C133.866 9.6303 133.885 9.4217 133.884 9.21272V4.74039C133.886 4.53745 133.867 4.33484 133.829 4.13552C133.797 3.96508 133.714 3.80842 133.59 3.68645C133.435 3.56102 133.239 3.4988 133.04 3.51232C132.849 3.50125 132.662 3.56359 132.517 3.68645C132.393 3.80842 132.31 3.96508 132.278 4.13552C132.24 4.33484 132.221 4.53745 132.223 4.74039V9.21272C132.209 9.42021 132.209 9.62843 132.223 9.83592C132.253 10.007 132.337 10.1641 132.462 10.285C132.541 10.3512 132.634 10.4 132.733 10.4285C132.833 10.4569 132.937 10.4642 133.04 10.4499Z" fill="#1C355E"/>
<path d="M139.94 11.8429C139.435 11.859 138.933 11.7487 138.481 11.5222C138.087 11.3205 137.766 10.9999 137.564 10.6057C137.353 10.0772 137.238 9.51555 137.224 8.94692L138.885 8.66281C138.894 8.99268 138.934 9.32098 139.004 9.64343C139.057 9.86009 139.161 10.0611 139.307 10.23C139.45 10.3524 139.633 10.4176 139.821 10.4133C139.918 10.4261 140.017 10.4115 140.106 10.371C140.195 10.3305 140.271 10.2657 140.326 10.1841C140.419 10.0195 140.467 9.83274 140.463 9.64343C140.479 9.29002 140.375 8.94162 140.17 8.65365C139.961 8.34898 139.71 8.07451 139.426 7.838L138.445 6.98568C138.085 6.70303 137.774 6.36231 137.527 5.97758C137.302 5.55507 137.191 5.08122 137.206 4.60288C137.182 4.27362 137.231 3.94319 137.348 3.63457C137.465 3.32595 137.648 3.04654 137.885 2.81578C138.395 2.38249 139.051 2.15677 139.72 2.18342C140.121 2.16645 140.521 2.24498 140.885 2.41253C141.174 2.55483 141.419 2.77355 141.592 3.04489C141.76 3.30491 141.878 3.59394 141.941 3.8972C142.011 4.1982 142.054 4.50494 142.069 4.81367L140.417 5.05195C140.412 4.79651 140.384 4.54203 140.335 4.29128C140.316 4.10336 140.243 3.92501 140.124 3.77806C140.065 3.7143 139.992 3.66469 139.911 3.63296C139.83 3.60122 139.743 3.58817 139.656 3.59477C139.558 3.58857 139.46 3.60917 139.372 3.65438C139.285 3.69959 139.212 3.7677 139.16 3.85138C139.051 4.01387 138.993 4.20553 138.995 4.40126C138.983 4.69212 139.06 4.97972 139.215 5.22608C139.401 5.47164 139.613 5.696 139.849 5.89509L140.766 6.73824C141.223 7.06142 141.621 7.46144 141.941 7.92048C142.246 8.40478 142.397 8.97067 142.372 9.54262C142.377 9.96231 142.273 10.3762 142.069 10.7432C141.87 11.0992 141.574 11.3916 141.216 11.5863C140.82 11.7805 140.38 11.8689 139.94 11.8429Z" fill="#1C355E"/>
<path d="M71.4482 24.316V14.8581H73.3661V24.316H71.4482Z" fill="#1C355E"/>
<path d="M75.1646 24.316V14.8581H76.5043L78.6148 19.7795V14.8581H80.2391V24.316H78.9544L76.853 19.083V24.316H75.1646Z" fill="#1C355E"/>
<path d="M84.4145 24.4168C83.8781 24.4466 83.3457 24.3088 82.8912 24.0227C82.5112 23.7459 82.226 23.3586 82.0745 22.9138C81.9074 22.3519 81.8269 21.7678 81.8359 21.1817V18.0016C81.8224 17.4152 81.903 16.8304 82.0745 16.2695C82.2351 15.7936 82.5605 15.3906 82.9921 15.133C83.5028 14.8443 84.0855 14.7076 84.6714 14.739C85.2242 14.7098 85.775 14.8268 86.2681 15.0781C86.6473 15.2795 86.9478 15.6022 87.1215 15.9945C87.3044 16.4644 87.3918 16.966 87.3784 17.47V18.0199H85.5432V17.3509C85.5439 17.1332 85.5286 16.9157 85.4973 16.7002C85.4759 16.5276 85.3985 16.3666 85.277 16.242C85.1249 16.1187 84.9307 16.0595 84.7356 16.077C84.6332 16.0673 84.5299 16.0803 84.4331 16.1152C84.3364 16.1501 84.2485 16.2059 84.1759 16.2786C84.0508 16.4227 83.9738 16.6021 83.9557 16.7918C83.9363 17.0083 83.9363 17.2261 83.9557 17.4425V21.6674C83.9518 21.9073 83.9733 22.1469 84.0199 22.3823C84.0538 22.5666 84.1435 22.7361 84.2768 22.868C84.4354 22.9932 84.6348 23.0553 84.8366 23.0421C85.0424 23.0532 85.245 22.988 85.4055 22.8588C85.5418 22.7205 85.6343 22.5452 85.6716 22.3548C85.7288 22.1146 85.7566 21.8684 85.7542 21.6216V20.6135H84.8366V19.4588H87.5069V24.316H86.0937L85.9744 23.5004C85.8533 23.7832 85.6603 24.0296 85.4147 24.2152C85.1107 24.3856 84.7608 24.4561 84.4145 24.4168Z" fill="#1C355E"/>
<path d="M89.03 24.316V14.8581H93.1594V16.1686H90.9662V18.6797H92.6547V20.0178H90.9662V22.9871H93.1869V24.2977L89.03 24.316Z" fill="#1C355E"/>
<path d="M94.5083 24.316V14.8581H95.8389L97.9402 19.7795V14.8581H99.5369V24.316H98.2431L96.1417 19.083V24.316H94.5083Z" fill="#1C355E"/>
<path d="M101.345 24.316V14.8581H103.263V24.316H101.345Z" fill="#1C355E"/>
<path d="M105.079 24.316V14.8581H109.209V16.1686H107.006V18.6797H108.686V20.0178H106.988V22.9871H109.218V24.2977L105.079 24.316Z" fill="#1C355E"/>
<path d="M110.521 24.316V14.8581H112.98C113.533 14.8464 114.084 14.9206 114.614 15.0781C115.047 15.1944 115.422 15.465 115.669 15.8387C115.942 16.2944 116.073 16.8207 116.045 17.3509C116.05 17.7023 116.013 18.053 115.935 18.3957C115.878 18.6779 115.759 18.944 115.586 19.1747C115.405 19.408 115.164 19.5884 114.889 19.697L116.192 24.2794H114.219L113.127 19.9903H112.448V24.2794L110.521 24.316ZM112.448 18.8814H113.017C113.27 18.8947 113.523 18.8442 113.751 18.7348C113.927 18.6319 114.061 18.4693 114.127 18.2765C114.206 18.0278 114.244 17.7676 114.237 17.5067C114.265 17.1599 114.181 16.8132 113.999 16.5169C113.89 16.3826 113.749 16.279 113.588 16.2163C113.427 16.1536 113.252 16.134 113.081 16.1595H112.42L112.448 18.8814Z" fill="#1C355E"/>
<path d="M117.752 24.316V14.8581H119.697V24.316H117.752Z" fill="#1C355E"/>
<path d="M121 24.316L122.836 14.8581H124.983L126.818 24.316H124.983L124.643 22.2356H123.147L122.79 24.316H121ZM123.368 21.0534H124.506L123.937 17.2409L123.368 21.0534Z" fill="#1C355E"/>
<path d="M71.4207 36.9174V27.4595H73.3477V35.6068H75.5684V36.9174H71.4207Z" fill="#1C355E"/>
<path d="M76.853 36.9174V27.4595H78.7709V36.9174H76.853Z" fill="#1C355E"/>
<path d="M80.542 36.9174L80.698 27.4595H82.7443L83.9097 33.4256L85.1577 27.4595H87.1398L87.3049 36.9174H85.9101L85.7541 30.5021L84.552 36.9174H83.3408L82.0836 30.5021L81.9551 36.9174H80.542Z" fill="#1C355E"/>
<path d="M89.0576 36.9174V27.4595H92.0583C92.5434 27.4417 93.0246 27.5524 93.4531 27.7803C93.8108 27.9922 94.0908 28.3135 94.2514 28.6967C94.4394 29.1654 94.53 29.6674 94.5175 30.1722C94.544 30.7222 94.4237 31.2694 94.1688 31.7577C93.9602 32.1223 93.638 32.4087 93.2512 32.5734C92.8143 32.7372 92.3506 32.818 91.8839 32.8116H90.9663V36.9082L89.0576 36.9174ZM90.9846 31.4186H91.6637C91.8852 31.4304 92.1061 31.3862 92.306 31.2903C92.4657 31.1946 92.5812 31.0398 92.6272 30.8596C92.6795 30.6126 92.7041 30.3605 92.7006 30.1081C92.7063 29.8651 92.6847 29.6223 92.6364 29.3841C92.6033 29.2008 92.5016 29.0369 92.3519 28.9258C92.1426 28.799 91.8986 28.7413 91.6545 28.7609H90.9846V31.4186Z" fill="#1C355E"/>
<path d="M95.8848 36.9174V27.4595H97.8026V36.9174H95.8848Z" fill="#1C355E"/>
<path d="M99.1331 36.9174L100.968 27.4595H103.106L104.942 36.9174H103.106L102.767 34.837H101.345L100.987 36.9174H99.1331ZM101.482 33.6548H102.62L102.042 29.8423L101.482 33.6548Z" fill="#1C355E"/>
</g>
<defs>
<clipPath id="clip0_258_377">
<rect width="149.923" height="37.8224" fill="white" transform="translate(0.405273 0.588806)"/>
</clipPath>
</defs>
</svg>
